<svg xmlns="http://www.w3.org/2000/svg" viewBox="0 0 900 900" fill="none" stroke="#C9A96E" stroke-width="1" stroke-linejoin="round">
<polyline points="625.2,405.0 627.0,407.4 628.6,409.9 629.8,412.5 630.5,415.1 630.6,417.7 630.2,420.3 629.3,422.8 628.0,425.2 626.2,427.4 624.2,429.5 621.9,431.4 619.5,433.2 617.1,435.0 614.7,436.6 612.3,438.3 609.9,439.8 607.6,441.4 605.2,442.9 602.7,444.3 600.2,445.6 597.5,446.8 594.8,447.8 592.0,448.7 589.1,449.4 586.2,450.0 583.3,450.5 580.4,450.9 577.6,451.3 574.8,451.8 572.1,452.3 569.3,452.9 566.6,453.5 563.8,454.2 560.9,454.8 558.0,455.3 555.0,455.7 552.0,455.9 549.0,455.8 546.1,455.4 543.2,454.8 540.4,453.9 537.8,452.8 535.3,451.5 532.8,450.2 530.4,449.0 528.1,447.7 525.6,446.6 523.1,445.6 520.4,444.8 517.5,444.0 514.4,443.3 511.3,442.5 508.0,441.7 504.8,440.7 501.6,439.5 498.7,438.1 496.1,436.4 493.8,434.4 492.0,432.3 490.5,429.9 489.5,427.5 488.9,424.9 488.5,422.3 488.5,419.7 488.6,417.2 488.8,414.6 489.2,412.2 489.6,409.7 490.2,407.3 490.8,405.0 491.6,402.7 492.5,400.5 493.6,398.3 494.9,396.2 496.4,394.2 498.0,392.3 499.6,390.4 501.3,388.7 502.9,386.9 504.4,385.2 505.7,383.4 506.8,381.5 507.7,379.5 508.5,377.4 509.3,375.2 510.0,372.8 510.8,370.4 511.9,367.9 513.1,365.6 514.7,363.3 516.6,361.3 518.9,359.5 521.5,358.0 524.3,356.9 527.3,356.0 530.4,355.4 533.5,354.9 536.7,354.6 539.8,354.4 542.9,354.1 545.9,353.9 548.9,353.5 551.9,353.1 554.9,352.6 558.0,352.1 561.1,351.7 564.3,351.4 567.5,351.2 570.7,351.3 573.8,351.7 576.9,352.3 579.9,353.2 582.8,354.3 585.5,355.6 588.1,357.0 590.6,358.5 593.0,360.1 595.3,361.7 597.5,363.3 599.6,364.9 601.7,366.6 603.7,368.3 605.6,370.1 607.3,371.9 608.8,373.9 610.0,376.0 611.1,378.1 611.9,380.3 612.5,382.5 612.9,384.7 613.4,386.8 613.9,388.9 614.5,390.9 615.3,392.9 616.4,394.8 617.8,396.7 619.4,398.6 621.3,400.6 623.2,402.8 625.2,405.0" />
<polyline points="688.6,402.0 691.9,406.5 694.8,411.2 696.9,416.0 698.1,421.0 698.3,425.9 697.5,430.7 695.7,435.4 693.1,439.8 689.7,443.9 685.8,447.8 681.6,451.4 677.1,454.8 672.5,458.0 667.9,461.1 663.4,464.1 658.8,466.9 654.2,469.7 649.6,472.3 644.9,474.8 640.0,477.1 634.9,479.1 629.7,480.8 624.4,482.2 619.1,483.4 613.7,484.4 608.4,485.3 603.1,486.1 598.0,487.0 592.9,488.0 587.9,489.2 582.9,490.5 577.9,491.9 572.7,493.4 567.4,494.9 562.0,496.2 556.4,497.1 550.8,497.7 545.1,497.7 539.5,497.2 534.0,496.1 528.7,494.5 523.7,492.5 518.9,490.3 514.2,487.8 509.7,485.4 505.2,483.0 500.6,480.9 495.8,479.0 490.8,477.2 485.5,475.6 479.9,474.1 474.1,472.6 468.2,470.8 462.4,468.8 456.8,466.4 451.6,463.6 446.9,460.3 442.9,456.6 439.6,452.6 437.1,448.2 435.3,443.6 434.1,438.8 433.5,434.1 433.3,429.3 433.5,424.5 433.8,419.9 434.4,415.3 435.1,410.8 436.1,406.3 437.2,402.0 438.7,397.7 440.5,393.6 442.6,389.6 445.1,385.7 447.9,382.0 450.9,378.4 454.0,375.0 457.1,371.8 460.0,368.5 462.6,365.2 464.9,361.9 466.8,358.3 468.4,354.5 469.7,350.5 470.8,346.2 472.0,341.6 473.4,336.9 475.2,332.3 477.4,327.7 480.3,323.4 483.9,319.4 488.1,316.0 492.9,313.2 498.2,310.9 503.8,309.2 509.7,308.1 515.7,307.3 521.7,306.7 527.6,306.3 533.5,306.0 539.2,305.6 544.9,305.1 550.6,304.5 556.3,303.8 562.0,303.2 567.8,302.7 573.7,302.4 579.6,302.5 585.4,302.9 591.2,303.8 596.8,305.1 602.2,306.9 607.5,309.0 612.4,311.4 617.2,314.0 621.8,316.7 626.3,319.4 630.6,322.2 634.9,325.0 639.1,327.8 643.1,330.7 647.0,333.7 650.7,336.9 654.0,340.3 657.0,343.8 659.5,347.6 661.5,351.6 663.0,355.6 664.3,359.7 665.2,363.8 666.1,367.8 667.1,371.7 668.3,375.5 669.9,379.1 672.0,382.7 674.6,386.3 677.8,390.0 681.2,393.8 684.9,397.8 688.6,402.0" />
<polyline points="752.9,399.0 757.7,405.6 761.6,412.5 764.5,419.7 766.1,426.9 766.2,434.1 764.9,441.2 762.2,447.9 758.2,454.4 753.2,460.4 747.4,466.1 741.1,471.4 734.5,476.3 727.8,481.0 721.0,485.5 714.2,489.7 707.4,493.8 700.5,497.8 693.6,501.4 686.4,504.8 679.1,507.9 671.6,510.6 663.9,512.8 656.0,514.7 648.2,516.3 640.4,517.6 632.7,518.8 625.2,520.1 617.8,521.5 610.6,523.2 603.5,525.2 596.4,527.5 589.1,530.0 581.7,532.6 574.0,535.2 566.0,537.5 557.8,539.2 549.4,540.4 541.0,540.7 532.6,540.1 524.5,538.7 516.6,536.5 509.0,533.7 501.8,530.3 494.9,526.8 488.2,523.1 481.5,519.6 474.7,516.3 467.8,513.3 460.5,510.5 452.8,508.0 444.8,505.5 436.5,503.0 428.2,500.2 420.0,496.9 412.2,493.2 404.9,488.9 398.5,483.9 393.0,478.4 388.5,472.3 385.0,465.9 382.5,459.2 380.9,452.3 380.0,445.4 379.6,438.5 379.6,431.7 380.0,424.9 380.6,418.3 381.5,411.8 382.7,405.3 384.2,399.0 386.3,392.8 388.8,386.8 392.0,380.9 395.6,375.3 399.7,369.9 404.1,364.7 408.7,359.8 413.1,355.0 417.3,350.2 421.0,345.4 424.2,340.4 426.8,335.1 428.8,329.5 430.5,323.4 431.9,316.9 433.4,310.1 435.3,303.0 437.7,296.0 440.9,289.1 445.1,282.6 450.3,276.7 456.5,271.6 463.6,267.4 471.4,264.0 479.8,261.5 488.5,259.8 497.4,258.6 506.3,257.9 515.1,257.4 523.8,257.0 532.4,256.6 540.8,256.1 549.2,255.5 557.6,254.9 566.0,254.4 574.5,254.1 583.0,254.1 591.5,254.6 599.9,255.7 608.1,257.3 616.1,259.5 623.9,262.2 631.3,265.4 638.4,268.8 645.3,272.5 652.0,276.2 658.6,280.0 665.1,283.7 671.5,287.5 677.9,291.2 684.1,295.2 690.2,299.3 695.8,303.7 701.0,308.4 705.6,313.5 709.5,319.0 712.6,324.7 715.1,330.6 717.0,336.6 718.5,342.6 719.9,348.5 721.4,354.2 723.3,359.8 725.7,365.2 728.9,370.5 732.8,375.8 737.3,381.2 742.4,386.8 747.7,392.7 752.9,399.0" />
<polyline points="818.1,396.0 824.0,404.8 828.9,413.9 832.4,423.3 834.1,432.8 834.0,442.3 832.0,451.5 828.1,460.4 822.8,468.8 816.1,476.8 808.5,484.2 800.2,491.1 791.5,497.6 782.6,503.7 773.6,509.6 764.6,515.1 755.5,520.4 746.3,525.5 737.0,530.1 727.4,534.4 717.6,538.1 707.5,541.3 697.3,544.0 686.9,546.3 676.6,548.1 666.4,549.8 656.5,551.4 646.8,553.1 637.4,555.2 628.1,557.7 619.0,560.7 609.8,564.2 600.4,568.0 590.6,572.0 580.5,575.9 570.0,579.4 559.1,582.2 548.0,584.1 536.7,584.8 525.5,584.3 514.5,582.7 503.9,579.9 493.8,576.2 484.1,571.8 474.8,567.0 465.8,562.1 457.0,557.3 448.0,552.8 438.9,548.5 429.4,544.6 419.5,540.9 409.2,537.3 398.7,533.6 388.2,529.5 377.9,524.9 368.1,519.6 359.2,513.6 351.2,506.9 344.5,499.5 339.0,491.5 334.7,483.0 331.6,474.2 329.5,465.3 328.2,456.3 327.5,447.4 327.3,438.5 327.4,429.8 327.8,421.2 328.7,412.7 329.9,404.3 331.7,396.0 334.2,387.9 337.4,379.9 341.4,372.2 346.2,364.8 351.6,357.7 357.4,350.9 363.3,344.4 369.1,338.1 374.5,331.8 379.2,325.4 383.2,318.8 386.3,311.7 388.7,304.1 390.6,295.9 392.3,287.2 394.1,278.0 396.3,268.5 399.5,259.0 403.7,249.8 409.2,241.1 416.0,233.3 424.3,226.5 433.7,220.8 444.1,216.4 455.3,213.1 466.9,210.8 478.8,209.3 490.6,208.4 502.4,207.9 514.0,207.6 525.4,207.3 536.6,206.9 547.8,206.5 558.9,206.1 570.0,205.9 581.1,206.1 592.2,206.6 603.2,207.8 614.0,209.7 624.6,212.2 634.9,215.5 644.8,219.2 654.3,223.4 663.6,227.9 672.5,232.5 681.3,237.1 690.1,241.7 698.8,246.1 707.6,250.6 716.3,255.1 725.0,259.8 733.3,264.8 741.2,270.3 748.5,276.3 754.9,282.8 760.3,289.8 764.8,297.3 768.3,305.0 771.0,312.9 773.2,320.9 775.2,328.7 777.3,336.3 779.8,343.7 783.1,350.9 787.2,357.9 792.3,365.0 798.2,372.3 804.7,379.8 811.5,387.7 818.1,396.0" />
<polyline points="883.9,393.0 890.8,403.9 896.3,415.3 900.1,426.9 901.7,438.7 901.1,450.3 898.2,461.7 893.2,472.6 886.3,483.0 878.0,492.8 868.5,501.9 858.3,510.5 847.6,518.5 836.6,526.1 825.5,533.3 814.4,540.2 803.1,546.7 791.6,552.8 779.9,558.4 767.9,563.4 755.5,567.8 742.9,571.5 730.1,574.6 717.3,577.1 704.5,579.3 692.0,581.2 679.9,583.2 668.1,585.5 656.7,588.4 645.5,591.9 634.4,596.1 623.1,600.9 611.6,606.3 599.7,611.8 587.1,617.3 574.0,622.1 560.4,626.1 546.4,628.9 532.2,630.2 518.0,629.8 504.2,627.9 490.8,624.6 477.9,620.0 465.7,614.6 454.0,608.6 442.7,602.3 431.6,596.1 420.6,590.2 409.3,584.6 397.7,579.4 385.7,574.4 373.3,569.4 360.8,564.2 348.4,558.6 336.3,552.5 324.9,545.5 314.5,537.8 305.4,529.2 297.6,519.8 291.3,509.8 286.4,499.4 282.7,488.6 280.1,477.7 278.4,466.8 277.2,455.9 276.5,445.1 276.1,434.5 276.1,424.0 276.6,413.6 277.6,403.2 279.4,393.0 282.1,382.9 285.8,373.1 290.6,363.5 296.4,354.3 303.0,345.5 310.1,337.1 317.4,329.0 324.5,321.1 331.0,313.2 336.7,305.2 341.4,296.9 345.0,288.0 347.8,278.3 349.9,268.0 351.8,256.9 353.9,245.3 356.6,233.4 360.5,221.5 365.7,209.9 372.6,199.1 381.2,189.3 391.6,180.8 403.4,173.8 416.5,168.2 430.5,164.2 445.1,161.4 459.9,159.6 474.8,158.6 489.6,158.1 504.1,157.9 518.4,157.8 532.5,157.7 546.4,157.6 560.2,157.7 574.0,158.0 587.7,158.8 601.3,160.1 614.7,162.2 627.9,165.1 640.7,168.7 653.1,173.0 665.0,177.9 676.6,183.1 687.8,188.5 698.9,193.9 709.8,199.2 720.8,204.3 731.9,209.3 743.2,214.2 754.5,219.2 765.8,224.5 776.7,230.2 787.1,236.6 796.6,243.6 805.1,251.5 812.3,260.0 818.3,269.2 822.9,278.8 826.6,288.6 829.5,298.5 832.1,308.3 834.8,317.8 838.0,327.1 842.1,336.2 847.1,345.1 853.3,354.1 860.4,363.2 868.1,372.7 876.1,382.6 883.9,393.0" />
<polyline points="950.0,390.0 957.5,403.1 963.4,416.6 967.1,430.5 968.4,444.4 967.0,458.2 963.1,471.6 956.8,484.5 948.5,496.8 938.5,508.3 927.3,519.1 915.2,529.3 902.6,538.9 889.7,548.0 876.7,556.6 863.5,564.8 850.1,572.5 836.4,579.7 822.4,586.3 808.0,592.1 793.1,597.1 777.9,601.3 762.6,604.8 747.3,607.6 732.2,610.0 717.4,612.2 703.1,614.7 689.3,617.6 675.9,621.3 662.8,626.0 649.8,631.5 636.6,637.9 623.0,645.0 608.7,652.3 593.8,659.4 578.0,665.8 561.6,671.1 544.6,674.8 527.4,676.7 510.3,676.5 493.5,674.4 477.2,670.5 461.6,665.1 446.8,658.5 432.6,651.2 419.0,643.5 405.7,635.9 392.5,628.4 379.1,621.4 365.5,614.6 351.5,608.0 337.3,601.5 323.1,594.7 309.0,587.5 295.4,579.6 282.8,570.8 271.3,561.1 261.2,550.6 252.7,539.2 245.7,527.3 240.3,514.9 236.1,502.2 232.9,489.4 230.5,476.7 228.7,464.0 227.2,451.5 226.1,439.0 225.3,426.7 225.1,414.4 225.6,402.2 227.1,390.0 229.8,378.0 233.8,366.2 239.2,354.8 245.9,343.7 253.6,333.1 261.9,323.0 270.4,313.3 278.8,303.8 286.4,294.3 293.0,284.6 298.4,274.5 302.6,263.7 305.8,252.0 308.2,239.5 310.4,226.1 312.8,212.1 316.1,197.8 320.8,183.4 327.2,169.6 335.6,156.6 346.1,144.9 358.6,134.8 372.9,126.5 388.7,119.9 405.6,115.1 423.2,111.8 441.1,109.8 459.0,108.7 476.8,108.3 494.2,108.2 511.4,108.4 528.4,108.6 545.1,109.0 561.6,109.7 578.0,110.7 594.2,112.3 610.3,114.6 626.0,117.7 641.4,121.8 656.3,126.6 670.7,132.1 684.6,138.0 698.1,144.2 711.3,150.5 724.4,156.5 737.6,162.3 750.9,167.8 764.6,173.0 778.5,178.1 792.6,183.3 806.7,189.0 820.5,195.2 833.6,202.3 845.7,210.4 856.5,219.5 865.7,229.5 873.2,240.4 879.2,251.8 883.9,263.6 887.7,275.5 891.0,287.3 894.3,298.9 898.1,310.1 902.8,321.2 908.7,332.0 915.7,342.9 923.8,354.0 932.6,365.5 941.5,377.5 950.0,390.0" />
<polyline points="1016.2,387.0 1023.9,402.2 1029.7,417.9 1033.1,433.9 1033.7,449.9 1031.4,465.8 1026.3,481.2 1018.7,495.9 1008.8,510.0 997.2,523.3 984.3,535.8 970.6,547.6 956.3,558.7 941.8,569.3 927.0,579.4 911.9,589.0 896.6,598.0 880.8,606.4 864.6,613.9 847.8,620.6 830.5,626.2 812.8,630.9 795.0,634.7 777.2,637.9 759.7,640.6 742.7,643.2 726.3,646.2 710.5,649.9 695.2,654.5 680.3,660.4 665.4,667.4 650.2,675.5 634.5,684.4 617.9,693.5 600.4,702.4 582.0,710.4 562.7,717.1 542.8,721.8 522.5,724.3 502.3,724.3 482.4,722.0 463.2,717.5 444.8,711.2 427.3,703.4 410.7,694.7 394.7,685.6 379.2,676.3 363.9,667.3 348.6,658.5 333.1,650.1 317.3,641.8 301.5,633.6 285.7,625.0 270.2,615.9 255.5,606.0 241.8,595.3 229.5,583.6 218.8,571.1 209.8,557.8 202.4,543.9 196.4,529.6 191.7,515.1 187.9,500.6 184.7,486.1 181.9,471.8 179.4,457.6 177.1,443.4 175.2,429.3 174.0,415.2 173.6,401.1 174.5,387.0 176.9,373.0 181.0,359.3 186.8,345.9 194.1,333.0 202.8,320.5 212.3,308.7 222.1,297.2 231.6,286.0 240.3,274.9 247.9,263.5 254.1,251.5 258.9,238.8 262.5,225.1 265.3,210.3 267.9,194.7 270.9,178.3 274.9,161.6 280.6,144.9 288.3,128.9 298.4,113.9 310.8,100.4 325.7,88.8 342.5,79.3 361.1,71.8 380.9,66.3 401.4,62.6 422.3,60.4 443.3,59.2 464.0,58.8 484.5,58.9 504.6,59.4 524.3,60.0 543.8,61.0 563.0,62.2 582.0,64.1 600.7,66.6 619.2,70.1 637.1,74.4 654.6,79.7 671.5,85.7 687.9,92.4 703.7,99.5 719.0,106.6 734.2,113.6 749.4,120.1 764.8,126.2 780.6,131.7 796.9,137.0 813.8,142.1 830.9,147.3 848.1,153.1 864.9,159.8 881.0,167.5 895.9,176.4 909.1,186.7 920.4,198.2 929.8,210.7 937.3,224.0 943.1,237.8 947.7,251.8 951.7,265.7 955.7,279.3 960.1,292.7 965.4,305.8 971.9,318.7 979.6,331.6 988.4,344.7 997.8,358.3 1007.3,372.3 1016.2,387.0" />
<polyline points="1082.2,384.0 1089.7,401.4 1095.0,419.2 1097.6,437.2 1097.3,455.2 1093.8,473.0 1087.4,490.3 1078.3,506.8 1066.9,522.6 1053.8,537.5 1039.5,551.7 1024.3,565.1 1008.6,577.9 992.6,590.1 976.3,601.7 959.7,612.8 942.6,623.2 924.9,632.8 906.6,641.5 887.5,649.0 867.9,655.4 847.8,660.7 827.5,664.9 807.3,668.4 787.4,671.4 768.2,674.5 749.7,678.1 731.9,682.6 714.8,688.3 698.0,695.5 681.1,704.1 664.0,714.0 646.1,724.7 627.2,735.7 607.2,746.4 586.0,756.1 563.8,764.0 540.8,769.7 517.4,772.8 494.1,773.0 471.1,770.4 449.0,765.3 427.8,757.9 407.6,749.0 388.5,738.9 370.2,728.1 352.5,717.2 335.1,706.4 317.8,695.9 300.6,685.7 283.2,675.6 265.9,665.4 248.8,654.8 232.3,643.7 216.7,631.8 202.3,619.0 189.5,605.2 178.4,590.6 169.0,575.3 161.3,559.5 154.9,543.4 149.6,527.2 145.0,511.1 140.8,495.1 136.8,479.2 132.9,463.4 129.1,447.7 125.7,431.9 123.0,416.0 121.3,400.0 121.3,384.0 123.1,368.0 126.9,352.3 132.9,336.9 140.9,322.0 150.4,307.7 160.9,293.9 171.9,280.7 182.6,267.7 192.5,254.8 201.0,241.6 208.1,227.8 213.6,213.2 217.8,197.4 221.3,180.5 224.5,162.6 228.2,144.0 233.2,125.0 240.0,106.2 249.3,88.0 261.1,71.2 275.8,56.1 293.0,43.2 312.5,32.5 333.9,24.2 356.5,18.1 380.1,14.0 404.0,11.6 427.9,10.3 451.6,10.0 474.9,10.3 497.8,11.0 520.4,12.0 542.6,13.5 564.4,15.5 586.0,18.2 607.2,21.8 627.9,26.4 648.1,32.0 667.6,38.6 686.5,46.0 704.7,53.9 722.3,62.0 739.5,69.9 756.6,77.4 773.9,84.3 791.7,90.5 810.1,96.0 829.3,101.0 849.1,105.9 869.5,111.0 890.0,116.8 910.1,123.7 929.4,131.9 947.2,141.7 963.1,153.1 976.8,166.0 988.1,180.2 997.1,195.4 1004.2,211.2 1009.7,227.3 1014.4,243.4 1018.9,259.2 1023.8,274.8 1029.6,290.0 1036.5,305.0 1044.6,320.1 1053.8,335.3 1063.5,351.0 1073.2,367.2 1082.2,384.0" />
<polyline points="1147.5,381.0 1154.4,400.5 1158.8,420.3 1160.4,440.3 1158.7,460.3 1153.9,479.8 1146.0,498.8 1135.4,517.1 1122.6,534.5 1108.2,551.1 1092.6,566.8 1076.2,581.9 1059.4,596.4 1042.3,610.2 1024.8,623.6 1006.8,636.2 988.2,648.2 968.9,659.1 948.6,669.0 927.5,677.6 905.5,684.8 883.1,690.7 860.4,695.5 837.8,699.4 815.6,702.9 794.2,706.5 773.6,710.8 753.8,716.1 734.7,723.0 716.0,731.5 697.2,741.8 678.0,753.4 657.9,766.0 636.6,779.0 614.0,791.4 590.0,802.6 564.8,811.8 538.7,818.4 512.2,821.9 485.7,822.2 459.7,819.3 434.6,813.5 410.5,805.1 387.7,794.8 366.1,783.3 345.5,770.9 325.6,758.3 306.2,745.7 287.1,733.3 268.2,721.1 249.3,709.0 230.7,696.7 212.6,684.1 195.2,670.8 179.0,656.7 164.2,641.7 151.1,625.8 139.8,609.2 130.3,591.9 122.3,574.3 115.5,556.5 109.5,538.7 104.0,521.1 98.6,503.6 93.0,486.3 87.4,469.1 81.7,451.8 76.3,434.4 71.8,416.8 68.5,399.0 67.1,381.0 68.0,363.0 71.4,345.2 77.4,327.7 85.7,310.7 96.0,294.4 107.5,278.8 119.6,263.6 131.5,248.9 142.6,234.2 152.3,219.1 160.3,203.5 166.7,186.8 171.8,169.0 176.0,150.0 180.1,130.0 184.9,109.2 191.0,88.1 199.4,67.3 210.3,47.3 224.2,28.8 241.2,12.3 260.9,-1.8 283.1,-13.4 307.2,-22.5 332.8,-29.1 359.3,-33.5 386.1,-36.2 412.9,-37.6 439.4,-37.9 465.6,-37.6 491.3,-36.7 516.6,-35.3 541.4,-33.3 565.9,-30.6 590.0,-27.0 613.6,-22.3 636.6,-16.5 658.9,-9.6 680.4,-1.7 701.2,7.0 721.2,16.1 740.6,25.1 759.7,33.8 778.8,41.8 798.3,48.9 818.5,55.0 839.6,60.2 861.8,64.9 884.9,69.4 908.6,74.2 932.6,79.9 956.3,86.8 978.9,95.5 999.8,106.1 1018.6,118.6 1034.7,132.9 1048.0,148.9 1058.7,166.0 1067.0,183.9 1073.5,202.2 1078.9,220.6 1083.9,238.7 1089.1,256.5 1095.2,273.9 1102.3,291.2 1110.6,308.5 1119.9,325.9 1129.5,343.7 1139.0,362.1 1147.5,381.0" />
<polyline points="1211.9,378.0 1217.7,399.5 1220.9,421.3 1221.0,443.2 1217.8,464.9 1211.4,486.2 1201.9,506.8 1189.9,526.7 1175.8,545.7 1160.2,563.8 1143.6,581.2 1126.4,598.0 1108.8,614.2 1090.8,629.8 1072.5,644.9 1053.5,659.4 1033.7,673.0 1012.9,685.6 991.0,696.8 967.9,706.6 943.8,714.8 919.0,721.5 893.9,726.9 868.9,731.3 844.5,735.4 820.8,739.6 798.0,744.6 776.2,750.9 755.2,758.9 734.5,768.8 713.7,780.7 692.3,794.1 669.9,808.5 646.2,823.2 620.9,837.3 594.0,850.0 565.8,860.3 536.6,867.6 506.9,871.5 477.3,871.7 448.2,868.4 420.1,861.7 393.3,852.3 367.9,840.7 343.7,827.6 320.8,813.6 298.8,799.2 277.5,784.7 256.7,770.4 236.1,756.2 215.9,742.0 196.2,727.6 177.2,712.8 159.2,697.2 142.6,680.8 127.6,663.6 114.4,645.5 103.1,626.8 93.5,607.6 85.3,588.2 78.0,568.8 71.3,549.5 64.6,530.5 57.7,511.8 50.3,493.2 42.5,474.7 34.5,456.0 26.9,437.0 20.1,417.7 14.8,398.0 11.8,378.0 11.5,357.9 14.2,337.9 19.9,318.3 28.5,299.2 39.4,280.8 51.8,263.1 65.1,246.0 78.2,229.4 90.6,212.8 101.5,195.9 110.7,178.3 118.2,159.7 124.3,140.0 129.7,119.0 135.0,96.9 141.0,74.1 148.8,51.1 158.8,28.5 171.8,6.9 187.9,-13.0 207.3,-30.7 229.6,-45.8 254.6,-58.2 281.5,-67.9 309.9,-74.9 339.2,-79.8 368.8,-82.7 398.4,-84.3 427.7,-84.7 456.6,-84.4 485.0,-83.4 512.9,-81.7 540.4,-79.3 567.4,-76.0 594.0,-71.6 620.0,-65.9 645.2,-58.9 669.6,-50.7 693.1,-41.5 715.7,-31.6 737.5,-21.4 758.8,-11.4 779.8,-2.1 800.9,6.3 822.7,13.4 845.4,19.3 869.4,24.1 894.6,28.3 921.1,32.3 948.5,36.7 976.1,42.1 1003.4,49.2 1029.5,58.3 1053.7,69.6 1075.4,83.2 1094.0,99.1 1109.4,116.7 1121.8,135.9 1131.4,156.0 1138.8,176.5 1144.9,197.2 1150.3,217.7 1155.8,237.8 1162.0,257.6 1169.1,277.2 1177.3,296.7 1186.2,316.4 1195.4,336.4 1204.3,357.0 1211.9,378.0" />
<polyline points="1275.1,375.0 1279.4,398.5 1280.9,422.2 1279.2,445.9 1274.3,469.2 1266.1,492.1 1255.0,514.2 1241.6,535.6 1226.3,556.1 1209.8,575.8 1192.5,594.8 1174.8,613.3 1156.8,631.3 1138.4,648.9 1119.6,666.0 1100.0,682.4 1079.3,697.9 1057.3,712.2 1033.8,725.0 1008.9,736.2 982.8,745.5 955.8,753.2 928.4,759.3 901.0,764.5 874.2,769.1 848.3,774.0 823.3,779.8 799.4,787.1 776.3,796.2 753.5,807.6 730.6,820.9 706.9,836.0 682.2,852.1 655.8,868.4 627.8,884.0 598.0,897.9 566.8,909.1 534.5,917.0 501.7,921.1 468.9,921.1 436.8,917.1 405.8,909.6 376.3,899.0 348.2,886.1 321.7,871.4 296.5,855.8 272.4,839.6 249.2,823.3 226.6,807.0 204.6,790.8 183.1,774.5 162.4,757.9 142.6,740.7 124.2,722.9 107.3,704.2 92.3,684.7 79.2,664.4 68.0,643.6 58.4,622.6 49.9,601.5 42.2,580.5 34.5,559.9 26.5,539.7 17.8,519.8 8.3,500.0 -2.0,480.2 -12.7,460.1 -23.1,439.6 -32.5,418.6 -40.0,397.0 -45.0,375.0 -46.8,352.8 -45.1,330.6 -39.7,308.7 -31.0,287.3 -19.6,266.8 -6.2,247.0 8.2,227.8 22.6,209.2 36.3,190.7 48.6,171.9 59.2,152.4 68.1,131.9 75.7,110.2 82.4,87.4 89.2,63.5 97.0,38.9 106.6,14.2 118.7,-9.9 133.9,-32.9 152.5,-53.9 174.5,-72.6 199.5,-88.5 227.2,-101.6 256.9,-111.7 288.1,-119.2 320.0,-124.4 352.3,-127.7 384.5,-129.5 416.4,-130.2 447.9,-130.0 478.9,-129.1 509.4,-127.4 539.4,-124.7 569.0,-120.9 598.0,-115.8 626.3,-109.2 653.8,-101.1 680.3,-91.7 705.8,-81.2 730.3,-70.1 753.9,-58.8 777.0,-48.0 799.9,-38.2 823.2,-29.6 847.3,-22.5 872.7,-16.9 899.6,-12.6 928.1,-9.0 958.1,-5.6 989.2,-1.6 1020.6,3.6 1051.6,10.7 1081.3,20.2 1108.8,32.3 1133.4,47.1 1154.6,64.5 1172.2,84.0 1186.2,105.1 1197.1,127.5 1205.4,150.4 1212.1,173.5 1217.8,196.4 1223.4,219.0 1229.5,241.2 1236.4,263.1 1244.2,285.0 1252.5,306.9 1260.9,329.2 1268.7,351.9 1275.1,375.0" />
<circle cx="558" cy="405" r="3" fill="#C9A96E" stroke="none"/>
</svg>